<svg xmlns="http://www.w3.org/2000/svg" width="882" height="120" viewBox="0 0 882 120" fill="none" role="img" aria-label="searchscope">
  <g transform="translate(-13.74 -13.74) scale(5.2386)">
    <g stroke="#F4F1EC" stroke-width="1.7" stroke-linecap="round" fill="none">
      <path d="M5 10 V5 H10"/><path d="M18 5 H23 V10"/><path d="M23 18 V23 H18"/><path d="M10 23 H5 V18"/>
    </g>
    <rect x="15" y="8" width="4.6" height="4.6" fill="#F4F1EC"/>
    <rect x="8.6" y="15" width="2.6" height="2.6" fill="#F4F1EC" opacity="0.45"/>
  </g>
  <g transform="translate(136.20 93.20)"><path d="M36.96 1.44Q28.439999999999998 1.44 22.32 -1.4400000000000002Q16.2 -4.32 12.84 -9.18Q9.48 -14.04 9.0 -20.04L21.36 -20.759999999999998Q22.32 -15.6 26.16 -12.54Q30.0 -9.48 37.08 -9.48Q43.68 -9.48 47.16 -11.280000000000001Q50.64 -13.08 50.64 -16.919999999999998Q50.64 -19.32 49.44 -20.939999999999998Q48.239999999999995 -22.56 44.94 -23.7Q41.64 -24.84 35.28 -26.04Q25.8 -27.84 20.46 -30.299999999999997Q15.12 -32.76 12.84 -36.54Q10.559999999999999 -40.32 10.559999999999999 -45.72Q10.559999999999999 -51.239999999999995 13.379999999999999 -55.67999999999999Q16.2 -60.12 21.72 -62.7Q27.24 -65.28 35.4 -65.28Q43.92 -65.28 49.44 -62.34Q54.96 -59.4 58.08 -54.72Q61.199999999999996 -50.04 62.04 -44.519999999999996L49.68 -43.8Q48.96 -46.92 47.16 -49.260000000000005Q45.36 -51.6 42.36 -52.980000000000004Q39.36 -54.36 35.4 -54.36Q29.04 -54.36 26.04 -51.84Q23.04 -49.32 23.04 -45.72Q23.04 -42.839999999999996 24.479999999999997 -41.099999999999994Q25.919999999999998 -39.36 29.28 -38.22Q32.64 -37.08 38.4 -36.0Q48.12 -34.44 53.4 -31.979999999999997Q58.68 -29.52 60.84 -25.92Q63.0 -22.32 63.0 -17.04Q63.0 -11.28 59.7 -7.14Q56.4 -3.0 50.58 -0.78Q44.76 1.44 36.96 1.44Z" fill="#F4F1EC"/><path d="M103.80000000000001 1.44Q94.8 1.44 88.14 -2.6399999999999997Q81.48 -6.72 77.82 -14.28Q74.16 -21.84 74.16 -31.919999999999998Q74.16 -42.0 77.82 -49.44Q81.48 -56.879999999999995 88.02000000000001 -61.08Q94.56 -65.28 103.44 -65.28Q111.84 -65.28 118.38 -61.26Q124.92 -57.239999999999995 128.58 -49.739999999999995Q132.24 -42.239999999999995 132.24 -31.68V-28.32H86.76Q87.36 -19.2 91.86 -14.459999999999999Q96.36 -9.719999999999999 103.92 -9.719999999999999Q109.56 -9.719999999999999 113.28 -12.419999999999998Q117.0 -15.12 118.44 -19.439999999999998L131.04 -18.599999999999998Q128.28 -9.48 121.2 -4.0200000000000005Q114.12 1.44 103.80000000000001 1.44ZM86.88 -38.04H119.03999999999999Q118.44 -46.199999999999996 114.12 -50.16Q109.80000000000001 -54.12 103.32 -54.12Q96.6 -54.12 92.34 -50.04Q88.08 -45.96 86.88 -38.04Z" fill="#F4F1EC"/><path d="M161.76 1.44Q155.76 1.44 150.95999999999998 -0.72Q146.16 -2.88 143.34 -6.84Q140.52 -10.799999999999999 140.52 -16.08Q140.52 -24.24 145.5 -28.799999999999997Q150.48000000000002 -33.36 160.56 -35.28L181.2 -39.6Q181.2 -47.04 177.95999999999998 -50.76Q174.72 -54.48 168.24 -54.48Q162.24 -54.48 158.88 -51.72Q155.52 -48.96 154.32 -44.04L141.6 -44.879999999999995Q143.4 -54.0 150.36 -59.64Q157.32 -65.28 168.24 -65.28Q180.48000000000002 -65.28 186.9 -58.32Q193.32 -51.36 193.32 -39.12V-13.92Q193.32 -11.76 194.28 -10.86Q195.24 -9.959999999999999 197.04000000000002 -9.959999999999999H200.64V0.0Q199.92000000000002 0.12 198.3 0.24Q196.68 0.36 195.12 0.36Q190.8 0.36 187.8 -1.08Q184.8 -2.52 183.36 -5.64Q182.52 -7.199999999999999 182.04000000000002 -9.12Q181.2 -7.319999999999999 179.76 -5.76Q176.76 -2.4 172.07999999999998 -0.48Q167.4 1.44 161.76 1.44ZM163.56 -8.52Q169.32 -8.52 173.28 -10.559999999999999Q177.24 -12.6 179.22 -16.32Q181.2 -20.04 181.2 -25.08V-30.0L163.44 -26.4Q157.68 -25.32 155.4 -23.04Q153.12 -20.759999999999998 153.12 -17.04Q153.12 -13.08 155.88 -10.8Q158.64000000000001 -8.52 163.56 -8.52Z" fill="#F4F1EC"/><path d="M211.68000000000004 0.0V-10.2H227.88000000000002V-53.64H211.68000000000004V-63.839999999999996H237.48000000000002L238.20000000000002 -51.48Q239.52000000000004 -56.64 242.40000000000003 -59.64Q246.36 -63.839999999999996 253.56000000000003 -63.839999999999996H267.12V-53.28H254.04000000000002Q249.48000000000002 -53.28 246.36 -51.54Q243.24 -49.8 241.62 -46.379999999999995Q240.00000000000003 -42.96 240.00000000000003 -37.92V-10.2H259.92V0.0Z" fill="#F4F1EC"/><path d="M306.24 1.44Q297.36 1.44 290.58000000000004 -2.7Q283.8 -6.84 280.14 -14.34Q276.48 -21.84 276.48 -31.919999999999998Q276.48 -42.0 280.14 -49.44Q283.8 -56.879999999999995 290.58000000000004 -61.08Q297.36 -65.28 306.24 -65.28Q313.56 -65.28 319.32000000000005 -62.58Q325.08000000000004 -59.879999999999995 328.8 -54.72Q332.52 -49.559999999999995 333.72 -42.36L321.36 -41.519999999999996Q319.92 -47.64 315.96000000000004 -50.879999999999995Q312.0 -54.12 306.36 -54.12Q298.32 -54.12 293.7 -48.17999999999999Q289.08 -42.239999999999995 289.08 -31.919999999999998Q289.08 -21.599999999999998 293.7 -15.659999999999998Q298.32 -9.719999999999999 306.36 -9.719999999999999Q312.12 -9.719999999999999 316.26 -13.139999999999999Q320.40000000000003 -16.56 321.72 -23.279999999999998L334.08000000000004 -22.56Q332.88 -15.24 329.03999999999996 -9.9Q325.2 -4.56 319.38 -1.5599999999999998Q313.56 1.44 306.24 1.44Z" fill="#F4F1EC"/><path d="M347.16 0.0V-85.2H359.28V-54.12Q360.36 -56.879999999999995 362.16 -58.919999999999995Q365.04 -62.16 369.12 -63.72Q373.2 -65.28 378.12 -65.28Q384.84 -65.28 389.46 -62.22Q394.08 -59.16 396.41999999999996 -53.699999999999996Q398.76 -48.239999999999995 398.76 -41.16V0.0H386.64V-38.04Q386.64 -46.68 383.58 -50.7Q380.52 -54.72 374.52 -54.72Q367.68 -54.72 363.48 -50.4Q359.28 -46.08 359.28 -37.68V0.0Z" fill="#F4F1EC"/><path d="M440.15999999999997 1.44Q431.64 1.44 425.52 -1.4400000000000002Q419.4 -4.32 416.03999999999996 -9.18Q412.68 -14.04 412.2 -20.04L424.56 -20.759999999999998Q425.52 -15.6 429.36 -12.54Q433.2 -9.48 440.28 -9.48Q446.88 -9.48 450.36 -11.280000000000001Q453.84 -13.08 453.84 -16.919999999999998Q453.84 -19.32 452.64 -20.939999999999998Q451.44 -22.56 448.14 -23.7Q444.84 -24.84 438.48 -26.04Q429.0 -27.84 423.65999999999997 -30.299999999999997Q418.32 -32.76 416.03999999999996 -36.54Q413.76 -40.32 413.76 -45.72Q413.76 -51.239999999999995 416.58 -55.67999999999999Q419.4 -60.12 424.91999999999996 -62.7Q430.44 -65.28 438.59999999999997 -65.28Q447.12 -65.28 452.64 -62.34Q458.15999999999997 -59.4 461.28 -54.72Q464.4 -50.04 465.24 -44.519999999999996L452.88 -43.8Q452.15999999999997 -46.92 450.36 -49.260000000000005Q448.56 -51.6 445.56 -52.980000000000004Q442.56 -54.36 438.59999999999997 -54.36Q432.24 -54.36 429.24 -51.84Q426.24 -49.32 426.24 -45.72Q426.24 -42.839999999999996 427.68 -41.099999999999994Q429.12 -39.36 432.48 -38.22Q435.84 -37.08 441.59999999999997 -36.0Q451.32 -34.44 456.6 -31.979999999999997Q461.88 -29.52 464.03999999999996 -25.92Q466.2 -22.32 466.2 -17.04Q466.2 -11.28 462.9 -7.14Q459.59999999999997 -3.0 453.78 -0.78Q447.96 1.44 440.15999999999997 1.44Z" fill="#F4F1EC"/><path d="M507.84 1.44Q498.96 1.44 492.17999999999995 -2.7Q485.4 -6.84 481.74 -14.34Q478.08 -21.84 478.08 -31.919999999999998Q478.08 -42.0 481.74 -49.44Q485.4 -56.879999999999995 492.17999999999995 -61.08Q498.96 -65.28 507.84 -65.28Q515.16 -65.28 520.92 -62.58Q526.68 -59.879999999999995 530.4 -54.72Q534.12 -49.559999999999995 535.3199999999999 -42.36L522.9599999999999 -41.519999999999996Q521.52 -47.64 517.56 -50.879999999999995Q513.6 -54.12 507.96 -54.12Q499.91999999999996 -54.12 495.29999999999995 -48.17999999999999Q490.67999999999995 -42.239999999999995 490.67999999999995 -31.919999999999998Q490.67999999999995 -21.599999999999998 495.29999999999995 -15.659999999999998Q499.91999999999996 -9.719999999999999 507.96 -9.719999999999999Q513.72 -9.719999999999999 517.86 -13.139999999999999Q522.0 -16.56 523.3199999999999 -23.279999999999998L535.68 -22.56Q534.48 -15.24 530.64 -9.9Q526.8 -4.56 520.98 -1.5599999999999998Q515.16 1.44 507.84 1.44Z" fill="#F4F1EC"/><path d="M573.6 1.44Q564.72 1.44 558.06 -2.6399999999999997Q551.4 -6.72 547.74 -14.28Q544.08 -21.84 544.08 -31.919999999999998Q544.08 -42.12 547.74 -49.62Q551.4 -57.12 558.06 -61.2Q564.72 -65.28 573.6 -65.28Q582.48 -65.28 589.1400000000001 -61.2Q595.8000000000001 -57.12 599.46 -49.62Q603.12 -42.12 603.12 -31.919999999999998Q603.12 -21.84 599.46 -14.28Q595.8000000000001 -6.72 589.1400000000001 -2.6399999999999997Q582.48 1.44 573.6 1.44ZM573.6 -9.719999999999999Q581.64 -9.719999999999999 586.02 -15.6Q590.4 -21.48 590.4 -31.919999999999998Q590.4 -42.36 586.02 -48.239999999999995Q581.64 -54.12 573.6 -54.12Q565.5600000000001 -54.12 561.1800000000001 -48.239999999999995Q556.8000000000001 -42.36 556.8000000000001 -31.919999999999998Q556.8000000000001 -21.48 561.1800000000001 -15.6Q565.5600000000001 -9.719999999999999 573.6 -9.719999999999999Z" fill="#F4F1EC"/><path d="M613.44 18.0V-63.839999999999996H624.96L625.08 -53.519999999999996Q627.48 -58.44 631.6800000000001 -61.44Q637.08 -65.28 644.5200000000001 -65.28Q653.7600000000001 -65.28 659.6400000000001 -60.66Q665.5200000000001 -56.04 668.4000000000001 -48.480000000000004Q671.2800000000001 -40.92 671.2800000000001 -31.92Q671.2800000000001 -22.919999999999998 668.4000000000001 -15.36Q665.5200000000001 -7.8 659.6400000000001 -3.1799999999999997Q653.7600000000001 1.44 644.5200000000001 1.44Q639.6 1.44 635.4000000000001 -0.17999999999999994Q631.2 -1.7999999999999998 628.32 -4.92Q626.6400000000001 -6.4799999999999995 625.5600000000001 -8.52V18.0ZM642.24 -9.719999999999999Q649.9200000000001 -9.719999999999999 654.24 -15.479999999999999Q658.5600000000001 -21.24 658.5600000000001 -31.92Q658.5600000000001 -42.6 654.24 -48.36Q649.9200000000001 -54.12 642.24 -54.12Q637.2 -54.12 633.48 -51.66Q629.7600000000001 -49.199999999999996 627.6600000000001 -44.28Q625.5600000000001 -39.36 625.5600000000001 -31.92Q625.5600000000001 -24.48 627.6000000000001 -19.56Q629.6400000000001 -14.639999999999999 633.4200000000001 -12.18Q637.2 -9.719999999999999 642.24 -9.719999999999999Z" fill="#F4F1EC"/><path d="M708.6000000000001 1.44Q699.6000000000001 1.44 692.94 -2.6399999999999997Q686.2800000000001 -6.72 682.6200000000001 -14.28Q678.9600000000002 -21.84 678.9600000000002 -31.919999999999998Q678.9600000000002 -42.0 682.6200000000001 -49.44Q686.2800000000001 -56.879999999999995 692.8200000000002 -61.08Q699.3600000000001 -65.28 708.2400000000001 -65.28Q716.6400000000001 -65.28 723.1800000000001 -61.26Q729.7200000000001 -57.239999999999995 733.3800000000001 -49.739999999999995Q737.0400000000001 -42.239999999999995 737.0400000000001 -31.68V-28.32H691.5600000000001Q692.1600000000001 -19.2 696.6600000000001 -14.459999999999999Q701.1600000000001 -9.719999999999999 708.7200000000001 -9.719999999999999Q714.3600000000001 -9.719999999999999 718.0800000000002 -12.419999999999998Q721.8000000000001 -15.12 723.2400000000001 -19.439999999999998L735.8400000000001 -18.599999999999998Q733.0800000000002 -9.48 726.0000000000001 -4.0200000000000005Q718.9200000000001 1.44 708.6000000000001 1.44ZM691.6800000000001 -38.04H723.8400000000001Q723.2400000000001 -46.199999999999996 718.9200000000001 -50.16Q714.6000000000001 -54.12 708.1200000000001 -54.12Q701.4000000000001 -54.12 697.1400000000001 -50.04Q692.8800000000001 -45.96 691.6800000000001 -38.04Z" fill="#F4F1EC"/></g>
</svg>
